<mxfile host="65bd71144e">
    <diagram id="9Tzryszt9GZ-6a8wWbes" name="Page-1">
        <mxGraphModel dx="1044" dy="701" grid="1" gridSize="10" guides="1" tooltips="1" connect="1" arrows="1" fold="1" page="1" pageScale="1" pageWidth="850" pageHeight="1100" math="0" shadow="0">
            <root>
                <mxCell id="0"/>
                <mxCell id="1" parent="0"/>
                <mxCell id="4" value="Campaign" style="rounded=1;whiteSpace=wrap;html=1;horizontal=1;verticalAlign=top;fillColor=#f8cecc;gradientColor=#ea6b66;strokeColor=#b85450;fontStyle=1;fontColor=#000000;" vertex="1" parent="1">
                    <mxGeometry x="50" y="80" width="650" height="540" as="geometry"/>
                </mxCell>
                <mxCell id="8" value="" style="edgeStyle=none;html=1;" edge="1" parent="1" source="5" target="7">
                    <mxGeometry relative="1" as="geometry"/>
                </mxCell>
                <mxCell id="5" value="المرشح&lt;br&gt;Candidate" style="rounded=0;whiteSpace=wrap;html=1;fillColor=#1ba1e2;fontColor=#ffffff;strokeColor=#006EAF;" vertex="1" parent="1">
                    <mxGeometry x="340" y="210" width="120" height="40" as="geometry"/>
                </mxCell>
                <mxCell id="12" value="" style="edgeStyle=none;html=1;" edge="1" parent="1" source="7" target="11">
                    <mxGeometry relative="1" as="geometry"/>
                </mxCell>
                <mxCell id="16" value="" style="edgeStyle=none;html=1;" edge="1" parent="1" source="7" target="13">
                    <mxGeometry relative="1" as="geometry"/>
                </mxCell>
                <mxCell id="17" style="edgeStyle=none;html=1;" edge="1" parent="1" source="7" target="14">
                    <mxGeometry relative="1" as="geometry"/>
                </mxCell>
                <mxCell id="7" value="المنسق العام&lt;br&gt;campaignAdmin" style="rounded=0;whiteSpace=wrap;html=1;fillColor=#a20025;fontColor=#ffffff;strokeColor=#6F0000;" vertex="1" parent="1">
                    <mxGeometry x="340" y="280" width="120" height="40" as="geometry"/>
                </mxCell>
                <mxCell id="21" value="" style="edgeStyle=none;html=1;" edge="1" parent="1" source="11" target="19">
                    <mxGeometry relative="1" as="geometry"/>
                </mxCell>
                <mxCell id="22" style="edgeStyle=none;html=1;" edge="1" parent="1" source="11" target="18">
                    <mxGeometry relative="1" as="geometry"/>
                </mxCell>
                <mxCell id="23" style="edgeStyle=none;html=1;" edge="1" parent="1" source="11" target="20">
                    <mxGeometry relative="1" as="geometry"/>
                </mxCell>
                <mxCell id="11" value="الوكيل&lt;br&gt;campaignAgent" style="rounded=0;whiteSpace=wrap;html=1;fontStyle=1;fontColor=#ffffff;fillColor=#60a917;strokeColor=#CCFFCC;" vertex="1" parent="1">
                    <mxGeometry x="200" y="360" width="120" height="40" as="geometry"/>
                </mxCell>
                <mxCell id="13" value="الوكيل&lt;br&gt;campaignAgent" style="rounded=0;whiteSpace=wrap;html=1;fontStyle=1;fontColor=#ffffff;fillColor=#60a917;strokeColor=#CCFFCC;" vertex="1" parent="1">
                    <mxGeometry x="340" y="360" width="120" height="40" as="geometry"/>
                </mxCell>
                <mxCell id="14" value="الوكيل&lt;br&gt;campaignAgent" style="rounded=0;whiteSpace=wrap;html=1;fillColor=#60a917;fontColor=#ffffff;strokeColor=#CCFFCC;fontStyle=1" vertex="1" parent="1">
                    <mxGeometry x="500" y="360" width="120" height="40" as="geometry"/>
                </mxCell>
                <mxCell id="18" value="المندوب&lt;br&gt;campaignDelegate" style="rounded=0;whiteSpace=wrap;html=1;" vertex="1" parent="1">
                    <mxGeometry x="70" y="460" width="120" height="40" as="geometry"/>
                </mxCell>
                <mxCell id="19" value="المندوب&lt;br&gt;campaignDelegate" style="rounded=0;whiteSpace=wrap;html=1;" vertex="1" parent="1">
                    <mxGeometry x="200" y="460" width="120" height="40" as="geometry"/>
                </mxCell>
                <mxCell id="20" value="المناوب&lt;br&gt;campaignDelegate" style="rounded=0;whiteSpace=wrap;html=1;" vertex="1" parent="1">
                    <mxGeometry x="330" y="460" width="120" height="40" as="geometry"/>
                </mxCell>
                <mxCell id="24" value="&lt;ul&gt;&lt;li&gt;campaignCandidate&lt;/li&gt;&lt;li&gt;campaignAdmin&lt;/li&gt;&lt;li&gt;campaignAgent&lt;/li&gt;&lt;li&gt;campaignDelegate&lt;/li&gt;&lt;li&gt;campaignAgent&lt;/li&gt;&lt;li&gt;campaignRep&lt;/li&gt;&lt;li&gt;campaign&lt;/li&gt;&lt;/ul&gt;" style="shape=document;whiteSpace=wrap;html=1;boundedLbl=1;align=left;" vertex="1" parent="1">
                    <mxGeometry x="720" y="80" width="290" height="270" as="geometry"/>
                </mxCell>
            </root>
        </mxGraphModel>
    </diagram>
</mxfile>